<svg xmlns="http://www.w3.org/2000/svg" xmlns:xlink="http://www.w3.org/1999/xlink" version="1.1"
     viewBox="0 0 1024 1024"
     width="1024" height="1024">
    <rect x="0" y="0"
          width="1024" height="1024"
          fill="#111111"></rect>
    <path d="M642.00000031 212a30 30 0 0 0-60 0v79.99999969a110.23999969 110.23999969 0 0 0 109.99999969 110.00000062h79.99999969a30 30 0 0 0 0-60h-79.99999969c-27.43999969 0-49.99999969-22.56-49.99999969-50.00000062v-79.99999969z" fill="#ffffff" p-id="1771"></path><path d="M724.52 108.12000031c16.24000031 10.2 29.95999969 23.95999969 50.64 44.64l56.08000031 56.07999938c20.68000031 20.68000031 34.44 34.39999969 44.64 50.64 10.24000031 16.24000031 17.64 34.08 21.87999938 52.76000062 4.24000031 18.67999969 4.24000031 38.11999969 4.24000031 67.39999969v345.16000031c0 30.88000031 0 55.8-1.56 75.99999938-1.63999969 20.76-5.04 39.07999969-13.24000031 56.12000062a149.76 149.76 0 0 1-70.27999969 70.27999969c-17.04 8.20000031-35.35999969 11.59999969-56.11999969 13.24000031-20.20000031 1.56-45.12 1.56-76.00000031 1.56H339.2c-30.88000031 0-55.8 0-76.00000031-1.56-20.76-1.63999969-39.07999969-5.04-56.11999969-13.24000031a149.76 149.76 0 0 1-70.27999969-70.27999969c-8.20000031-17.04-11.59999969-35.35999969-13.24000031-56.12000062-1.56-20.20000031-1.56-45.12-1.56-75.99999938V299.19999969c0-30.88000031 0-55.8 1.56-75.99999938 1.63999969-20.76 5.04-39.07999969 13.24000031-56.12000062A149.76 149.76 0 0 1 207.08 96.8c17.04-8.20000031 35.35999969-11.59999969 56.11999969-13.24000031 20.20000031-1.56 45.12-1.56 76.00000031-1.56h265.15999969c29.28 0 48.72 0 67.40000062 4.24000031 18.67999969 4.24000031 36.52000031 11.64 52.75999969 21.88000031zM340.4 141.99999969c-32.35999969 0-54.96 0.04000031-72.55999969 1.40000062-17.23999969 1.32-27.24 3.84-34.8 7.47999938a89.83999969 89.83999969 0 0 0-42.16000031 42.16000031c-3.64000031 7.56-6.16000031 17.56000031-7.48000031 34.8-1.36000031 17.59999969-1.39999969 40.2-1.39999969 72.55999969v423.20000062c0 32.35999969 0.04000031 54.96 1.39999969 72.55999969 1.32 17.23999969 3.84 27.24 7.48000031 34.8 8.83999969 18.43999969 23.71999969 33.31999969 42.16000031 42.16000031 7.56 3.64000031 17.56000031 6.16000031 34.8 7.47999938 17.59999969 1.36000031 40.2 1.39999969 72.55999969 1.40000062h343.2c32.35999969 0 54.96-0.04000031 72.55999969-1.40000062 17.23999969-1.32 27.24-3.84 34.8-7.47999938a89.83999969 89.83999969 0 0 0 42.16000031-42.16000031c3.64000031-7.56 6.16000031-17.56000031 7.48000031-34.8 1.36000031-17.59999969 1.39999969-40.2 1.39999969-72.55999969V383.04000031c0-33.88000031-0.16000031-46.15999969-2.76-57.48a109.68 109.68 0 0 0-14.11999969-34.16000062c-6.16000031-9.79999969-14.76-18.6-38.72000062-42.55999969L735.15999969 197.6c-23.95999969-23.95999969-32.76-32.56000031-42.55999969-38.71999969a109.68 109.68 0 0 0-34.15999969-14.12000062c-11.32000031-2.59999969-23.59999969-2.76-57.48-2.76H340.4z" fill="#ffffff" p-id="1772"></path>
    <g style="transform:scale(0.5) translate(0,200px);transform-origin:center;">
        <path
            d="M682.2314 889.73a24.7235 25.1463 0 01-11.8211-3.0495L446.3013 762.2487H371.9587c-138.2158 0-254.9766-123.9818-254.9766-270.6853V444.7952A253.1334 257.4623 0 01371.9587 189.8325H648.4394A253.1334 257.4623 0 01903.416 444.7952v46.6681A248.2182 252.463 0 01710.7233 744.1706V864.7337A24.5761 24.9964 0 01686.1472 889.73ZM362.7471 260.1754A203.9813 207.4696 0 00187.019 448.6416v42.4712c0 117.6577 93.0837 197.5415 192.2569 194.887H459.91a24.7972 25.2213 0 0110.7097 5.0818l179.2077 106.178V714.0868a24.5761 24.9964 0 0124.3584-28.2681c110.4824-42.5173 153.1095-98.2608 161.8089-188.5122V455.7201A203.9813 207.4696 0 00637.6483 260.1754H371.4465Z"
            fill="#FFFFFF"/>
        <rect x="60" y="370"
              width="100" height="100"
              rx="50" ry="50"
              fill="#FFFFFF">
        </rect>
        <rect x="865" y="370"
              width="100" height="100"
              rx="50" ry="50"
              fill="#FFFFFF">
        </rect>
        <rect x="300" y="380"
              width="100" height="150"
              rx="50" ry="50"
              fill="#FFFFFF">
        </rect>
        <rect x="600" y="380"
              width="100" height="150"
              rx="50" ry="50"
              fill="#FFFFFF">
        </rect>
    </g>
</svg>
