<?xml version="1.0" standalone="no"?><!DOCTYPE svg PUBLIC "-//W3C//DTD SVG 1.1//EN" "http://www.w3.org/Graphics/SVG/1.1/DTD/svg11.dtd"><svg t="1734749650031" class="icon" viewBox="0 0 1024 1024" version="1.1" xmlns="http://www.w3.org/2000/svg" p-id="1707" xmlns:xlink="http://www.w3.org/1999/xlink" width="1024" height="1024"><path d="M342.84007161 170.984375l-4.20996094 17.38740234c-0.35595703 1.45986328-0.52822266 2.78261719-0.52822265 4.05351563v76.24951172c0 10.51083984 9.33925781 19.05732422 20.82392578 19.05732422h286.40039062c11.48554688 0 20.83623047-8.54648438 20.83623047-19.05732422v-76.24951172c0-1.26035156-0.18369141-2.59365234-0.53876953-4.05351563L661.41282552 170.984375h116.70820312l0.60117188 0.00439453c19.82548828 0.2953125 35.85058594 15.14179688 35.86113281 33.35361328v346.59140625a48.48574219 48.48574219 0 0 0-5.03261719-0.26191406h-0.50097656l-0.50097656 0.01054687c-15.34833984 0.31552734-29.83447266 7.86972656-38.81865235 20.74482422l-62.37070312 89.08681641-62.46123047-89.23798828-0.38935547-0.54492188-0.38408203-0.5211914a48.55517578 48.55517578 0 0 0-38.96191406-19.53808594 48.42773438 48.42773438 0 0 0-27.83671875 8.79697266l-0.65302735 0.4640625-0.63720703 0.46757812c-20.86699219 15.58476563-25.69306641 45.12128906-10.63828125 66.65537109l78.17871094 111.6834961-1.08720703-0.32080078a97.33886719 97.33886719 0 0 0-27.08789063-3.83554688C560.36848958 734.58300781 515.75520833 779.19628906 515.75520833 834.22900391c0 27.60996094 11.22890625 52.59638672 29.36865234 70.64296875L226.14329427 904.87109375C206.04270833 904.87109375 189.68098958 889.90859375 189.68098958 871.51308594V204.34238281c0-18.39550781 16.36083984-33.35800781 36.46230469-33.35800781h116.69677734z m159.41074219-51.85546875c31.75664063 0 57.52089844 22.55976562 57.52089844 50.38769531h68.63378906c10.11621094 0 18.30673828 7.51640625 18.30673828 16.79853516v67.18623047c0 9.27246094-8.19140625 16.79941406-18.30761719 16.79941406H376.71575521C366.61097005 270.30078125 358.43098958 262.784375 358.43098958 253.51191406v-67.19677734c0-9.28212891 8.17998047-16.79941406 18.2953125-16.79941406h67.9921875c0-27.82617188 25.75283203-50.38681641 57.53232422-50.38681641z" fill="#1296DB" p-id="1708"></path><path d="M809.55071614 578.796875c4.04560547 0 8.13251953 1.20585937 11.70878906 3.6984375 9.16347656 6.39228516 11.43808594 18.95185547 5.21982422 28.16455078l-0.19335937 0.28125-93.9788086 134.2546875 23.09150391 32.98183594 0.50097656-0.39023438c12.07265625-9.31464844 27.00703125-15.07939453 43.41269532-15.07939453 39.50068359 0 71.52099609 32.02119141 71.52099609 71.5209961 0 39.10517578-31.38398438 70.87939453-70.33886719 71.51132812l-1.1821289 0.00966797-1.18300782-0.00878906c-38.95400391-0.6328125-70.33886719-32.40703125-70.33886718-71.51220703 0-6.64101563 1.19091797-12.94277344 2.91796875-19.03095703l0.20917968-0.72949219L707.35677083 780.8328125l-23.540625 33.63574219 0.20742188 0.72949218c1.70859375 6.0890625 2.89863281 12.38994141 2.89863281 19.03095704 0 39.10517578-31.38398438 70.87939453-70.33886719 71.51132812l-1.18212891 0.00966797-1.18300781-0.00878906C575.2641927 905.10839844 543.88020833 873.33330078 543.88020833 834.228125c0-39.49980469 32.02119141-71.52099609 71.52099609-71.52099609 16.42675781 0 31.36113281 5.765625 43.43291016 15.07939453l0.50097656 0.39023437 23.09150391-32.98183594-93.9788086-134.2555664-0.19335937-0.28125c-6.21826172-9.21181641-3.94277344-21.77050781 5.22070312-28.16367188A20.30888672 20.30888672 0 0 1 605.16282552 578.796875c6.33603516 0 12.55341797 2.93115234 16.54980469 8.40673828l0.22763671 0.31904297L707.35677083 709.55791016l85.43671875-122.03613282 0.22763672-0.31816406c3.97705078-5.47558594 10.21289063-8.40673828 16.52958984-8.40673828zM800.52083333 807.3125c-15.53291016 0-28.125 12.59208984-28.125 28.125 0 15.53291016 12.59208984 28.125 28.125 28.125 15.53291016 0 28.125-12.59208984 28.125-28.125 0-15.53291016-12.59208984-28.125-28.125-28.125z m-186.328125 0c-15.53291016 0-28.125 12.59208984-28.125 28.125 0 15.53291016 12.59208984 28.125 28.125 28.125 15.53291016 0 28.125-12.59208984 28.125-28.125 0-15.53291016-12.59208984-28.125-28.125-28.125z" fill="#66758E" p-id="1709"></path></svg>