<?xml version="1.0" standalone="no"?><!DOCTYPE svg PUBLIC "-//W3C//DTD SVG 1.1//EN" "http://www.w3.org/Graphics/SVG/1.1/DTD/svg11.dtd"><svg t="1737131985531" class="icon" viewBox="0 0 1024 1024" version="1.1" xmlns="http://www.w3.org/2000/svg" p-id="2021" xmlns:xlink="http://www.w3.org/1999/xlink" width="1024" height="1024"><path d="M461.1607666 605.52111817L549.73803711 694.09838867 503.76025391 736.78027344 418.47888183 648.20300293 329.90161133 736.78027344 287.21972656 694.09838867l88.57727052-88.57727051L287.21972656 520.23974609l42.68188477-45.9777832 88.57727051 88.57727051L503.76025391 474.26196289l45.9777832 45.9777832-88.57727051 85.28137208zM326.60571289 329.90161133H201.93835449L142.859375 388.98059082v433.16345215l59.0789795 59.0789795h433.16345214l59.0789795-59.0789795V697.47668458h124.66735839l62.37487794-62.37487794V205.23425293L818.84814453 142.859375H388.98059082L326.60571289 205.23425293V329.90161133z m62.37487794-124.66735841h429.8675537v429.86755372H694.18078614V388.98059082L635.10180664 329.90161133H388.98059082V205.23425293z m246.03881834 616.82739258H201.93835449V388.98059082h433.16345215v433.16345215z" fill="#707070" p-id="2022"></path></svg>